<svg width="40" height="41" viewBox="0 0 40 41" fill="none" xmlns="http://www.w3.org/2000/svg">
<path d="M13 22C8.582 22 5 18.418 5 14C5 9.582 8.582 6 13 6C13.834 6 14.636 6.128 15.392 6.364C16.518 2.68 19.946 0 24 0C28.97 0 33 4.03 33 9C33 9.47 32.964 9.93 32.894 10.38C33.55 10.134 34.258 10 35 10C38.314 10 41 12.686 41 16C41 19.314 38.314 22 35 22H13Z" fill="url(#paint0_linear_1_5)"/>
<path d="M15 9C15 13.97 19.03 18 24 18C28.502 18 32.23 14.696 32.894 10.38C33.55 10.134 34.258 10 35 10C38.314 10 41 12.686 41 16C41 19.314 38.314 22 35 22H13C8.582 22 5 18.418 5 14C5 9.582 8.582 6 13 6C13.834 6 14.636 6.128 15.392 6.364C15.136 7.198 15 8.082 15 9Z" fill="url(#paint1_radial_1_5)"/>
<path d="M33.4338 23.4878L34.481 26.572H37.87L35.1283 28.4781L36.1755 31.5623L33.4338 29.6561L30.6921 31.5623L31.7393 28.4781L28.9976 26.572H32.3865L33.4338 23.4878Z" fill="#66AFEB"/>
<path d="M36.3326 24.6661L35.1987 27.5684L37.8632 29.5054L34.4979 29.362L33.364 32.2643L32.418 29.2734L29.0527 29.13L31.8334 27.425L30.8874 24.4341L33.5519 26.3712L36.3326 24.6661Z" fill="#66AFEB"/>
<path d="M20.9185 28.7358L22.2074 32.334L26.3784 32.334L23.004 34.5578L24.2929 38.156L20.9185 35.9322L17.5441 38.156L18.833 34.5578L15.4586 32.334L19.6296 32.334L20.9185 28.7358Z" fill="#66AFEB"/>
<path d="M24.4863 30.1105L23.0907 33.4964L26.3701 35.7563L22.2282 35.589L20.8326 38.975L19.6684 35.4857L15.5264 35.3184L18.9488 33.3291L17.7845 29.8398L21.0639 32.0997L24.4863 30.1105Z" fill="#66AFEB"/>
<path d="M6.43377 24.7358L7.48102 28.334L10.87 28.334L8.12825 30.5578L9.17549 34.156L6.43377 31.9322L3.69206 34.156L4.7393 30.5578L1.99758 28.334L5.38653 28.334L6.43377 24.7358Z" fill="#66AFEB"/>
<path d="M9.3326 26.1105L8.1987 29.4964L10.8632 31.7563L7.49791 31.589L6.36401 34.975L5.41804 31.4857L2.05273 31.3184L4.8334 29.3291L3.88742 25.8398L6.55194 28.0997L9.3326 26.1105Z" fill="#66AFEB"/>
<defs>
<linearGradient id="paint0_linear_1_5" x1="23" y1="0" x2="23" y2="22" gradientUnits="userSpaceOnUse">
<stop stop-color="#9FC7FF"/>
<stop offset="1" stop-color="#9BC1F5"/>
</linearGradient>
<radialGradient id="paint1_radial_1_5" cx="0" cy="0" r="1" gradientUnits="userSpaceOnUse" gradientTransform="translate(9.75395 -30.6966) rotate(-90) scale(20.9574 6.69705)">
<stop stop-color="#486DA8" stop-opacity="0.4"/>
<stop offset="1" stop-color="#486DA8" stop-opacity="0"/>
</radialGradient>
</defs>
</svg>
