<svg width="66" height="55" viewBox="0 0 66 55" fill="none" xmlns="http://www.w3.org/2000/svg">
<path d="M46.554 19.7909L49.6554 30.1209L59.6919 30.1209L51.5723 36.5052L54.6737 46.8352L46.554 40.4509L38.4343 46.8352L41.5358 36.5052L33.4161 30.1209L43.4526 30.1209L46.554 19.7909Z" fill="#66AFEB"/>
<path d="M55.1389 23.7375L51.7808 33.4581L59.6719 39.9461L49.7054 39.4658L46.3473 49.1864L43.5458 39.169L33.5793 38.6887L41.8143 32.9779L39.0128 22.9605L46.9039 29.4484L55.1389 23.7375Z" fill="#66AFEB"/>
<path d="M15.4619 32.7627L17.3819 39.2869H23.5949L18.5685 43.3191L20.4884 49.8433L15.4619 45.8111L10.4354 49.8433L12.3554 43.3191L7.3289 39.2869H13.542L15.4619 32.7627Z" fill="#66AFEB"/>
<path d="M20.7764 35.2553L18.6975 41.3946L23.5825 45.4922L17.4128 45.1889L15.3339 51.3283L13.5997 45.0015L7.42992 44.6982L12.5278 41.0913L10.7935 34.7645L15.6785 38.8621L20.7764 35.2553Z" fill="#66AFEB"/>
<rect width="5.27288" height="27.0339" transform="matrix(0.75896 -0.651137 0.835678 0.549219 0 7.24921)" fill="#66AFEB"/>
<rect width="23.2602" height="5.42043" transform="matrix(-0.0118213 0.99993 -0.999998 -0.00201275 15.9869 0.01091)" fill="#66AFEB"/>
<rect width="26.4626" height="5.28462" transform="matrix(0.84409 -0.536201 0.75576 0.654848 1.16922 17.8435)" fill="#66AFEB"/>
<rect width="2.83947" height="14.5177" transform="matrix(0.75167 -0.659539 0.829944 0.557847 38.4999 6.06951)" fill="#66AFEB"/>
<rect width="12.6873" height="2.8909" transform="matrix(-0.0115587 0.999933 -0.999998 -0.00205849 47.0264 2.12133)" fill="#66AFEB"/>
<rect width="14.2064" height="2.84611" transform="matrix(0.838567 -0.544799 0.748419 0.663226 39.1236 11.8482)" fill="#66AFEB"/>
<rect width="1.82708" height="9.26603" transform="matrix(0.73011 -0.68333 0.812704 0.582677 27.5001 49.1745)" fill="#66AFEB"/>
<rect width="8.45816" height="1.80681" transform="matrix(-0.0108363 0.999941 -0.999997 -0.00219572 32.8288 46.5424)" fill="#66AFEB"/>
<rect width="9.05871" height="1.83193" transform="matrix(0.821929 -0.569589 0.726722 0.686932 27.8898 53.027)" fill="#66AFEB"/>
</svg>
